<?xml version="1.0" encoding="UTF-8" standalone="no"?><!DOCTYPE svg PUBLIC "-//W3C//DTD SVG 1.1//EN" "http://www.w3.org/Graphics/SVG/1.1/DTD/svg11.dtd"><svg width="100%" height="100%" viewBox="0 0 1234 1201" version="1.1" xmlns="http://www.w3.org/2000/svg" xmlns:xlink="http://www.w3.org/1999/xlink" xml:space="preserve" xmlns:serif="http://www.serif.com/" style="fill-rule:evenodd;clip-rule:evenodd;stroke-linecap:round;stroke-linejoin:round;stroke-miterlimit:10;"><path d="M993.122,4.523c-38.34,17.05 -79.8,25.87 -117.79,44.87c-86.5,43.25 -168.02,94.38 -245.78,150.93c-31.78,23.12 -59.25,48.66 -88.72,74.45c-9.18,8.03 -20.21,12.67 -27.54,22.44c-3.8,5.07 27.53,54.06 24.48,60.17c-5.66,11.31 -54.4,15.71 -68.33,23.45c-57.14,31.75 -114.08,61.17 -165.21,103.01c-82.63,67.6 -115.71,164.88 -142.78,264.13c-7.42,27.21 -4.81,55.68 -10.2,82.61c-1.66,8.31 -30.35,20.11 -36.71,27.53c-30.23,35.27 -62.91,70.39 -88.73,109.12c-9.31,13.97 -22.64,28.75 -25.49,45.9c-3.8,22.75 27.05,19.32 40.79,24.47c17.91,6.72 34.51,17.15 53.03,22.44c19.56,5.59 43.04,2.75 63.23,6.12c4.52,0.75 35.29,5 36.71,7.14c5.53,8.29 1.8,26.36 12.24,32.63c18.04,10.83 70.98,-3.36 75.47,0c44.32,33.24 132.76,97.89 257,94.85c81.01,-1.99 165.92,-23.65 212.12,-43.86c91.38,-39.97 166.2,-113.15 215.18,-198.86c16.86,-29.49 30.19,-65.27 42.84,-96.89c2.6,-6.5 7.51,-35.6 12.23,-38.75c4.78,-3.18 57.93,42.3 70.37,43.85c49.44,6.18 16.36,-34.44 39.78,-52.01c1.57,-1.18 6.33,3.28 7.13,4.08c11.51,11.51 24.44,29.16 41.82,32.63c7.52,1.51 17.89,3.56 25.49,1.02c8.39,-2.79 29.34,-33.8 27.54,-42.83c-5.82,-29.1 -11.63,-62.62 -33.66,-84.64c-7.88,-7.88 -28.53,-13.22 -33.65,-23.46c-9.85,-19.7 -2.12,-45.97 -20.4,-64.25c-13.87,-13.87 -34.07,-18.73 -50.99,-25.49c-3.06,-1.23 -86.58,-135.32 -85.94,-137.87c1.17,-4.68 84.01,-49.92 89.13,-51.52c32.34,-10.1 100.25,-47.42 107.85,-85.4c5.62,-28.13 -187.38,-333.25 -198.74,-336.09c-7.93,-1.98 -11.95,3.27 -13.77,4.08Z" style="fill:#fff;fill-rule:nonzero;"/><path d="M281.942,573.973c-7.03,3.51 -10.33,13.7 -18.05,15.2c-4.86,0.94 -13.09,-4.85 -11.4,-9.5c9.59,-26.38 138.35,-45.19 150.12,1.9c12.06,48.23 -20.75,71.01 -43.71,108.31c-29.71,48.29 -46.86,98.42 -68.41,150.12c-5.68,13.65 -19.73,77.92 -41.8,77.92c-27.62,0 -54.88,-57.14 -60.81,-77.92c-20.85,-72.95 27.12,-143.78 53.21,-207.13c6.94,-16.85 15.48,-35.5 24.7,-51.3c3.9,-6.68 7.83,-13.54 13.3,-19.01c2.61,-2.61 10.98,-9.08 9.5,-5.7c-4.88,11.17 -0.84,14.2 -6.65,17.11Z" style="fill:#b5ca9b;fill-rule:nonzero;"/><path d="M237.292,992.983c-11.13,-13.98 16.74,-33.98 32.3,-42.76c30.23,-17.05 92.61,-24.87 121.62,0c23.87,20.46 38.24,51.9 58.91,76.01c16.41,19.15 35.69,35.59 51.3,55.11c9.21,11.51 43.13,43.25 36.11,60.81c-6.53,16.33 -92.46,-4.88 -102.62,-9.5c-22.76,-10.35 -55.78,-20.73 -76.01,-34.21c-13.95,-9.3 -24.74,-22.82 -39.9,-30.4c-16.43,-8.21 -32.85,-12.49 -47.51,-24.71c-19.35,-16.12 -23.69,-37.15 -34.2,-50.35Z" style="fill:#b5ca9b;fill-rule:nonzero;"/><path d="M972.692,600.573c-27.32,0 -60.08,2.99 -83.61,17.1c-20.76,12.46 -38.8,26.04 -55.11,43.71c-10.44,11.32 -20.12,21.16 -28.5,34.2c-4.38,6.82 -23.17,33.3 -19,43.71c5.41,13.54 23.3,19.91 32.3,30.4c12.5,14.59 57.01,76.68 57.01,93.12c-0,29.65 -22.46,92.08 -32.31,121.62c-3.5,10.5 -5.76,33.56 9.5,36.1c22.45,3.74 52.43,-27.72 66.51,-41.81c59,-58.99 50.01,-165.74 60.81,-241.33c2.24,-15.67 8.49,-98.81 -13.3,-98.81" style="fill:#b5ca9b;fill-rule:nonzero;"/><path d="M721.862,395.343c-16.59,-8.29 -37.69,1.26 -55.11,7.6c-27.43,9.98 -61.16,47.02 -68.41,76.01c-12.08,48.31 88.54,-26.17 64.61,45.61c-12.18,36.55 -89.72,90.25 -30.41,127.32c98.16,61.34 126.81,-52.98 195.73,-83.61c21.3,-9.47 110.59,-15.77 121.62,-32.31c8.96,-13.44 -26.17,-33.77 -32.31,-39.91c-35.04,-35.04 -62.3,-70.68 -114.01,-83.61" style="fill:#b5ca9b;fill-rule:nonzero;"/><path d="M661.542,405.803c-15.92,-3.42 -32.19,-6.06 -48.47,-6.06c-90.84,0 -98.35,36.8 -162.38,84.83c-25.04,18.77 -61.37,4.03 -89.67,9.69c-15.98,3.2 -57.7,47.89 -53.32,65.43c5.54,22.16 118.76,-13.78 118.76,43.63c-0,35.2 -36.98,46.83 -55.75,70.28c-44.43,55.54 -68.98,134.08 -82.4,201.15c-3.07,15.35 -43.89,62.84 -36.35,67.86c17.92,11.95 57.3,-21.26 75.13,-24.23c37.15,-6.19 82.19,33.72 106.64,58.16c9.93,9.94 11.06,27.68 19.38,38.78c20.17,26.88 43.96,45.69 70.29,65.43c20.19,15.15 21.82,36.36 50.89,43.63c63,15.75 138.83,-31.85 191.46,-58.17c21.03,-10.51 48.02,-16.36 63.01,-36.35c17.49,-23.32 4.85,-92.86 4.85,-121.18c-0,-29.47 6.55,-49.7 12.12,-77.55c0.31,-1.58 0.89,-3.5 -0,-4.85c-3.99,-5.98 -20.59,-9.08 -26.66,-12.11c-27.51,-13.76 -73.72,-63.41 -55.74,-99.37c16.43,-32.87 61.93,-50.52 89.67,-72.7c10.86,-8.69 17.21,-24.32 31.5,-29.09c24.28,-8.09 67.18,-17.95 60.59,-50.89c-6.09,-30.49 -71.33,-26.13 -89.67,-16.97c-22.2,11.1 -53.64,19.36 -70.28,38.78c-29.24,34.11 -43.62,54.28 -82.4,77.55c-14.18,8.51 -39.66,35.7 -58.17,21.82c-25.75,-19.32 -42.05,-84.5 -21.81,-111.49c9.12,-12.15 49.57,-45.19 43.63,-63.01c-9.25,-27.73 -99.46,29.52 -89.68,-19.39c3.38,-16.87 120.08,-76.03 84.83,-83.61Z" style="fill:#b7d6e8;fill-rule:nonzero;"/><path d="M750.892,831.313c1.21,-2.54 2.23,-8.74 -0.58,-8.44c-36.35,3.98 -72.12,12.31 -107.81,20.29c-20.43,4.57 -40.54,10.64 -60.39,17.32c-15.18,5.1 -44.51,23.78 -49.88,40.03c-13.67,41.39 107.7,45.26 130.35,40c30.53,-7.07 72.03,-33.51 85.22,-62.87c10.3,-22.94 -7.93,-23.21 3.09,-46.33Z" style="fill:#fff;fill-rule:nonzero;"/><path d="M593.182,664.663c-53.13,-26.35 -25.44,105.03 1.63,122.81c22.9,15.04 25.23,-19.9 25.47,-33.56c0.68,-38.01 1.71,-74.96 -27.1,-89.25Z" style="fill:#9bb9ca;fill-rule:nonzero;"/><path d="M841.842,279.103c-2.26,13.76 -28.35,-6.96 -41.72,-3c-13.52,4.01 -24.33,14.33 -35.87,22.43c-3.03,2.12 -1.96,17.25 -1.9,18.45c1.37,25.79 29.97,41.28 48.61,54.63c10.67,7.64 18.58,18.97 29.13,26.52c26.25,18.8 87.02,12.85 106.48,-14.31c27.73,-38.72 38.31,-150.38 -19.58,-168.28c-32.96,-10.18 -79.35,28.34 -85.15,63.56Z" style="fill:#de8273;fill-rule:nonzero;"/><path d="M879.922,474.283c-135.74,-129.14 -344.48,-112.65 -494.25,-15.3c-60.56,39.37 -105.51,101.88 -138.62,164.44c-9.58,18.08 -20.69,35.13 -27.73,54.49c-33.52,92.18 -28.82,286.51 49.72,358.5c161.84,148.36 427.2,120.79 594.63,-4.78c46.2,-34.65 66.94,-98.12 93.69,-146.27c37.55,-67.6 52.97,-178.64 25.81,-253.34c-23.05,-63.38 -62.42,-118.9 -103.25,-157.74Z" style="fill:none;fill-rule:nonzero;stroke:#000;stroke-width:16.67px;"/><path d="M196.832,835.333c-25.49,21.24 -52.66,40.88 -76.8,63.68c-13.85,13.07 -25.87,27.84 -39.39,41.35c-13.71,13.71 -50.95,49.86 -42.01,72.21c3.19,7.97 52.08,13.68 60.39,14.44c49,4.46 117.16,8.69 160.17,30.2" style="fill:none;fill-rule:nonzero;stroke:#000;stroke-width:16.67px;"/><path d="M243.442,1055.24c1.24,4.97 0.57,1.72 1.31,9.84" style="fill:none;fill-rule:nonzero;stroke:#000;stroke-width:16.67px;"/><path d="M233.592,1053.92c-12.12,-6.06 1.38,24.64 10.5,26.92c15.01,3.75 37.77,-4.64 45.3,-19.7" style="fill:none;fill-rule:nonzero;stroke:#000;stroke-width:16.67px;"/><path d="M248.032,1019.13c-11.68,-5.84 -26.67,-4.49 -39.38,-7.22c-25.52,-5.47 -52.55,-15.65 -79.43,-11.81c-5.47,0.78 -53.19,2.6 -56.46,-0.66c-1.12,-1.12 1.55,-4.54 1.97,-5.25c8.12,-13.53 26.51,-29.24 40.05,-36.76c12.3,-6.84 25.13,-18.6 36.1,-27.57c15.05,-12.32 31.74,-28.01 49.23,-36.76" style="fill:none;fill-rule:nonzero;stroke:#000;stroke-width:16.67px;"/><path d="M994.252,691.223c9.76,3.25 14.75,14.35 21.82,21.82c14.51,15.31 32.21,33.27 44.24,51.32c0.39,0.59 0.79,1.17 1.18,1.76c6.33,9.49 14.36,20.26 22.41,28.32c0.7,0.69 1.67,2.46 2.36,1.76c2.41,-2.4 -2.93,-20.82 -3.54,-24.77c-3.72,-24.17 -11.2,-49.49 -11.2,-74.31" style="fill:none;fill-rule:nonzero;stroke:#000;stroke-width:16.67px;"/><path d="M998.242,761.003c2.33,6.71 9.65,10.47 14.98,15.18c7.59,6.72 15.54,13.03 23.29,19.57c7.96,6.71 16.84,10.62 24.87,17.09c7.75,6.24 25.6,21.94 35.23,23.19c10.71,1.39 10,-23.04 9.93,-28.69c-0.2,-16.17 1.18,-34.31 -1.93,-50.29c-2.6,-13.34 -7.11,-28.71 -6.48,-42.4" style="fill:none;fill-rule:nonzero;stroke:#000;stroke-width:16.67px;"/><path d="M1069.07,698.053c-1.01,-11.32 -6.66,-22.68 -11.86,-32.76c-0.6,-1.17 -9.33,-13.59 -9.16,-13.8c7.54,-9.96 24.19,13.49 26.61,17.93" style="fill:none;fill-rule:nonzero;stroke:#000;stroke-width:16.67px;"/><path d="M1103.76,642.813c-6.39,4.94 -9.69,12.15 -15.73,17.6c-7.06,6.38 -18.89,23.48 -0.03,20.88c9.41,-1.3 18.09,-10.51 24.88,-16.41c10.28,-8.92 2.83,-31.3 -9.12,-22.07Z" style="fill:none;fill-rule:nonzero;stroke:#000;stroke-width:16.67px;"/><path d="M1090.22,684.893c-11.73,4.07 5.6,15.46 15.08,11.26c11.03,-4.89 49.56,-40.11 15.87,-40.94" style="fill:none;fill-rule:nonzero;stroke:#000;stroke-width:16.67px;"/><path d="M1098.42,702.913c-9.96,10.21 6.07,17.3 13.81,14.61c10.66,-3.7 23.86,-14.86 27.95,-25.72c2.1,-5.56 -0.95,-16.65 -8.72,-13.96" style="fill:none;fill-rule:nonzero;stroke:#000;stroke-width:16.67px;"/><path d="M602.782,385.613c-2.3,-6.48 -7.21,-11.7 -10.83,-17.55c-9.48,-15.35 -19.51,-30.79 -28.03,-46.59c-2.24,-4.15 -15.99,-18.33 -14.6,-23.85c3.56,-14.19 68.17,-50.93 81.7,-60.4c28.26,-19.79 57.05,-40.26 86.06,-58.9c54.91,-35.27 119.8,-58.89 178.67,-86.48c28.31,-13.27 55.87,-28.18 83.19,-43.35c4.55,-2.52 19.83,-15.66 24.97,-15.76c2.32,-0.05 8.8,16.75 9.71,18.71c8.19,17.74 18.12,34.74 26.33,52.55c26.46,57.32 52.5,120.29 87.51,172.95c3.31,4.98 30.24,58.84 27.24,63.69c-18.1,29.24 -62.22,41.18 -90.42,57.39c-54.92,31.56 -112.13,65.69 -161.01,103.9" style="fill:none;fill-rule:nonzero;stroke:#000;stroke-width:16.67px;"/><path d="M972.602,460.443c6.76,6.5 10.08,15.81 15.27,23.61c5.52,8.3 11.31,16.4 17.12,24.49c21.68,30.17 40.9,62.2 58.84,94.49c7.96,14.34 25.97,25.74 31.33,40.83" style="fill:none;fill-rule:nonzero;stroke:#000;stroke-width:16.67px;"/><path d="M945.982,473.733c6.87,-2.44 8.91,11.54 13.11,17.5c7.21,10.25 14.96,20.11 22.24,30.31c31.9,44.68 50.66,99.14 89.98,136.92" style="fill:none;fill-rule:nonzero;stroke:#000;stroke-width:16.67px;"/><path d="M1135.87,708.873c12.32,11.84 30.67,35.73 41.31,49.52c7.67,9.93 26.59,30.74 28.43,43.39c0.61,4.24 -11.1,24.04 -16.89,21.29c-3.8,-1.8 -24.05,-28.8 -27.09,-33.17c-13.29,-19.1 -47.49,-49.72 -54.94,-70.65" style="fill:none;fill-rule:nonzero;stroke:#000;stroke-width:16.67px;"/><path d="M578.102,660.293c-7.76,0.62 -12.62,0.12 -17.25,6.58c-3.11,4.33 3.9,19.7 5.01,23.97c5.27,20.35 6.58,44.99 15.38,64c3.24,7.01 6.27,23.82 17.28,22.59c10.49,-1.18 16.19,-16.02 15.19,-24.99c-2.17,-19.33 -10.76,-94.13 -35.61,-92.15Z" style="fill:none;fill-rule:nonzero;stroke:#000;stroke-width:16.67px;"/><path d="M462.292,671.953c1.42,5.46 3.52,10.72 5.37,16.06" style="fill:none;fill-rule:nonzero;stroke:#000;stroke-width:16.67px;"/><path d="M670.122,594.033c-1.2,5.62 1.05,11.9 4.8,16.2" style="fill:none;fill-rule:nonzero;stroke:#000;stroke-width:16.67px;"/><path d="M524.182,903.793c-4.41,-8.81 10.76,-13.67 18.62,-18.67c11.19,-7.12 22.32,-14.33 33.58,-21.33c44.32,-27.57 93.6,-35.84 143.7,-44.46c9.25,-1.59 36.98,-8.28 42.12,2.32c9.23,19.06 -27.8,61.31 -39.06,74.5c-13.22,15.49 -27.69,30.21 -45.42,40.64c-41.72,24.55 -132.68,8.72 -153.54,-33Z" style="fill:none;fill-rule:nonzero;stroke:#000;stroke-width:16.67px;"/><path d="M264.912,567.283c23.2,-8.85 49.69,-13.04 74.17,-15.61c33.22,-3.49 89.32,24.12 72.32,65.48c-23.45,57.05 -81.41,93.07 -106.63,150.37c-11.1,25.21 -21.23,52.09 -27.01,79.19c-4.15,19.44 -4.42,47.37 -18.38,63.73c-18.22,21.34 -41.64,7.21 -54.35,-12.39" style="fill:none;fill-rule:nonzero;stroke:#000;stroke-width:16.67px;"/><path d="M199.052,991.053c23.71,-31.69 52.47,-44.48 87.61,-61.21c15.3,-7.29 37.08,-6.91 53.75,-8.52c85.78,-8.24 135.92,109.65 179.84,166.98c18.46,24.1 40.25,42.25 62.4,62.04" style="fill:none;fill-rule:nonzero;stroke:#000;stroke-width:16.67px;"/><path d="M973.672,592.983c-27.31,-1.87 -54.19,6.82 -80.11,13.54c-44.46,11.52 -141.23,86.68 -120.83,142.01c4.52,12.28 15.02,28.29 25.17,36.79c24.65,20.64 55.55,18.27 60.67,57.68c3.88,29.81 -11.18,58.67 -16.48,87.3c-3.5,18.93 -3.75,41.52 -1.74,60.61c0.75,7.16 10.55,46 20.29,43.48" style="fill:none;fill-rule:nonzero;stroke:#000;stroke-width:16.67px;"/><path d="M702.032,378.203c-6.65,7.44 -11.37,16.58 -18.59,23.46c-8.89,8.49 -20.82,11.36 -30.92,17.64c-19.84,12.35 -35.19,26.51 -46.92,46.46c-6.25,10.61 -17.57,26.45 -2.24,35.47c15.04,8.85 67.16,-13.21 75.33,5.15c5.71,12.83 -26.62,32.68 -34.98,39.14c-26.02,20.13 -39.07,43.79 -26.88,77.36c4.18,11.48 12.06,23.26 20.34,32.03c20.51,21.74 39.79,24.27 66.79,13.98c30.58,-11.66 54.69,-29.34 76.09,-54.62c18.03,-21.29 38.88,-49.36 64.44,-62.42c25.66,-13.1 83.02,5.7 98.95,-8.19" style="fill:none;fill-rule:nonzero;stroke:#000;stroke-width:16.67px;"/><path d="M365.672,456.943c18.15,10.68 42.1,6.36 63.03,4.12c30.86,-3.3 65.66,-21.8 89.77,-41.31c13.91,-11.26 23.61,-27.85 37.23,-39.73" style="fill:none;fill-rule:nonzero;stroke:#000;stroke-width:16.67px;"/><path d="M840.892,267.253c-18.66,6.85 -44.38,-7.12 -60.26,9.79c-7.96,8.48 -8.51,21.06 -7.19,31.81c5.98,48.63 53.62,63.12 93.57,77.31c8.76,3.12 32.23,10.63 41.38,7.61c9.35,-3.1 14.27,-29.81 16.77,-37.75c8.42,-26.81 32.62,-124.52 -9.68,-136.8c-16.72,-4.85 -46.01,8.27 -56.77,22.05c-8.15,10.44 -8.44,22.54 -17.82,25.98Z" style="fill:none;fill-rule:nonzero;stroke:#000;stroke-width:16.67px;"/></svg>