<?xml version="1.0" encoding="UTF-8" standalone="no"?><!DOCTYPE svg PUBLIC "-//W3C//DTD SVG 1.1//EN" "http://www.w3.org/Graphics/SVG/1.1/DTD/svg11.dtd"><svg width="100%" height="100%" viewBox="0 0 925 1085" version="1.1" xmlns="http://www.w3.org/2000/svg" xmlns:xlink="http://www.w3.org/1999/xlink" xml:space="preserve" xmlns:serif="http://www.serif.com/" style="fill-rule:evenodd;clip-rule:evenodd;stroke-linecap:round;stroke-linejoin:round;stroke-miterlimit:10;"><path d="M657.073,178.155c-2.31,-7.28 -11.08,-10.61 -15.7,-16.7c-13.98,-18.45 -27.86,-37.25 -38.43,-57.85c-16.28,-31.75 -9.25,-70.32 -39.92,-93.36c-25.05,-18.81 -53.32,-5.09 -81.02,-9.43c-25.43,-3.98 -57.51,8.39 -81.82,16.5c-81.82,27.3 -105.02,48.24 -154.16,118.05c-53.18,75.55 -105.06,155.63 -143.67,239.91c-32.97,72 -78.21,135.8 -96.61,214.98c-17.56,75.56 8.57,194.89 32.34,268.28c6.37,19.66 20.39,29.33 31,46.37c33.71,54.12 85.6,71.39 138.7,102.04c47.84,27.61 104.1,59.79 159.14,70.24c143.31,27.2 277.61,-28.03 398.76,-97.94c32.59,-18.8 61.25,-40.12 84.37,-70.91c16.28,-21.67 29.88,-54.75 40.96,-79.6c19.9,-44.64 21.16,-92.74 26.83,-140.16c3.43,-28.68 10.89,-63.2 3.28,-92.02c-3.99,-15.12 -11.08,-30.18 -13.71,-45.84c-6.66,-39.64 -12.49,-74.32 -32.03,-110.84c-25.51,-47.66 -62.1,-91.17 -90.91,-136.89c-32.28,-51.21 -112.45,-77.88 -127.4,-124.83Z" style="fill:#fff;fill-rule:nonzero;"/><path d="M69.103,635.205c6.22,-11.08 25.3,-2.85 38,-2.85c28.15,0 53,17.83 77.91,28.51c56.97,24.41 44.13,81.43 60.81,127.31c10.34,28.45 23.69,56.8 32.31,85.52c4.57,15.24 25.48,64.02 9.5,76.01c-21.04,15.78 -56.17,7.24 -77.91,0c-10.2,-3.4 -22.71,-1.85 -32.31,-7.6c-16.21,-9.73 -27.23,-33.13 -34.2,-49.41c-23.26,-54.26 -61.84,-98.78 -77.92,-157.72c-7.57,-27.77 -7.16,-80.24 3.81,-99.77Z" style="fill:#b5ca9b;fill-rule:nonzero;"/><path d="M229.673,333.065c20.15,-20.39 69.52,9.72 61.76,44.65c-9.96,44.82 -46.46,68.75 -70.31,104.52c-15.84,23.75 -26.98,49.86 -45.61,72.21c-6.33,7.6 -41.88,44.6 -53.21,36.11c-11.73,-8.81 10.34,-56.31 13.31,-64.61c19.16,-53.67 38.85,-100.35 66.5,-150.13c7.91,-14.23 17.43,-32.5 27.56,-42.75Z" style="fill:#b5ca9b;fill-rule:nonzero;"/><path d="M597.373,263.705c-38.32,-19.16 -63.86,21.94 -39.9,39.9c8.53,6.4 22.06,3.06 30.4,11.41c5.24,5.23 5.4,20.21 3.8,26.6c-3.18,12.72 -29.84,18.66 -39.9,24.7c-20.78,12.47 -33.17,35.39 -36.11,58.91c-1.31,10.45 -4.82,21 1.9,30.41c40.79,57.1 97.6,29.24 153.92,19c11.24,-2.04 66.91,-15.24 72.21,-28.51c11.43,-28.56 -41.48,-92.62 -57.01,-115.91c-6.55,-9.83 -21.73,-13.07 -26.6,-22.81" style="fill:#b5ca9b;fill-rule:nonzero;"/><path d="M875.763,571.545c-15.8,7.16 -32.71,-11.71 -48.45,-19c-24.76,-11.47 -46.55,-22.63 -74.12,-20.9c-27.23,1.7 -58.53,5.52 -83.61,17.1c-40.15,18.53 -107.87,91.3 -68.41,140.62c14.23,17.78 51.63,18.52 70.31,30.4c19.21,12.23 30.01,42.72 38.01,62.71c13.92,34.81 0.27,86.87 -3.8,123.52c-1.13,10.18 -7.47,30.44 7.6,34.21c39.46,9.86 61.89,-28.55 79.81,-60.81c15.63,-28.13 41.36,-54.01 53.21,-83.62c13.02,-32.54 20.35,-68.24 26.6,-102.61c5.69,-31.27 1.9,-65.27 1.9,-96.91c0,-6.37 2.68,-25.49 0.95,-24.71Z" style="fill:#b5ca9b;fill-rule:nonzero;"/><path d="M511.223,273.725c-28.58,-5.71 -67.47,-13.66 -89.12,-12.73c-23.01,0.99 -44.58,11.6 -66.84,17.51c-22.98,6.09 -81.69,16.97 -87.52,46.15c-2.07,10.33 31.54,27.78 36.6,42.96c12.71,38.15 -27.94,81.28 -49.34,109.81c-8.73,11.64 -21.66,19.83 -30.23,31.83c-16.45,23.02 -22.3,52.53 -42.97,73.2c-7.27,7.27 -50.92,24.17 -50.92,25.46c0,1.06 -0.59,2.3 0,3.19c10.38,15.57 48.53,13.51 62.06,27.05c7.05,7.05 20.1,9.83 27.05,19.09c10.41,13.88 41.56,63.07 44.56,79.57c7.69,42.25 8.82,85.77 20.69,127.31c7.15,25.02 23.29,45.24 27.05,71.62c1.14,7.98 1.9,25.05 -3.18,31.82c-10.27,13.7 -54.81,26.05 -14.32,38.2c22.5,6.75 45.39,2.85 68.43,4.77c71.3,5.94 146.59,20.65 218.02,4.77c26.88,-5.97 77.24,-10.69 95.48,-35.01c8.55,-11.39 23.53,-43.99 19.1,-57.29c-4.17,-12.49 -10.94,-20.14 -7.96,-35.01c7.07,-35.36 36.77,-62.96 27.05,-101.84c-4.99,-19.96 -45.76,-23.36 -60.47,-25.47c-41.83,-5.97 -71.91,-57.1 -65.25,-97.07c11.03,-66.16 81.83,-101.49 140.04,-109.8c27.4,-3.92 90.63,24.97 82.76,-22.28c-20.69,-124.09 -128.98,-78.87 -210.07,-55.7c-29.53,8.44 -67.54,19.98 -92.3,-4.78c-32.79,-32.79 -18.34,-70.21 1.6,-103.44c9.65,-16.09 30.17,-25.39 42.96,-38.19c3.92,-3.91 19.83,-0.86 15.92,-4.77c-15.86,-15.86 -78.5,-27.59 -22.28,-55.7" style="fill:#b7d6e8;fill-rule:nonzero;"/><path d="M442.013,430.485c9.57,-13.28 9.87,-41.81 -13.72,-28.21c-16.58,9.55 -14.63,102.52 25.3,99.39c32.66,-2.55 6.6,-82.95 4.05,-98.68" style="fill:#9bb9ca;fill-rule:nonzero;"/><path d="M445.503,105.865c0,0.01 -21.51,-18.25 -27.5,-2.71c-7.46,19.37 5.08,47.55 27.49,47.85c13.5,0.19 42.13,-28.37 33.9,-42.35c-5.66,-9.61 -31.33,-13.94 -33.89,-2.79Z" style="fill:#de8273;fill-rule:nonzero;"/><path d="M63.643,591.675c13.56,23.32 34.48,26.41 45.36,3.44c9.5,-20.04 13.75,-45.15 20.45,-66.36c10.24,-32.41 26.11,-66.73 40.08,-97.72c32.98,-73.14 77.06,-140.8 114.44,-211.24c6.18,-11.64 14.68,-22.19 21.92,-33.14c6.97,-10.54 19.21,-36.39 31.82,-40.89c11.08,-3.96 65.43,28.25 79.37,32.35c2.54,0.74 9.49,5.34 11.8,4.87c10.09,-2.05 -0.98,-25.55 -3.4,-28.64c-4.98,-6.35 -16.97,-6.15 -23.77,-8.39c-18.7,-6.16 -27.08,-25.42 -21.44,-44.6c8.2,-27.9 12.56,-36.08 41.1,-26.68c5.49,1.81 14.46,14.36 21.4,10.86c7.17,-3.62 -6.24,-28.71 -12.33,-34.54c-10.54,-10.11 -35.85,-3.77 -46.96,1.18c-35.13,15.68 -55.89,55 -79.55,82.6c-86.19,100.53 -149.88,222.18 -202.72,343.05c-9.27,21.19 -47.37,96.99 -37.57,113.85Z" style="fill:none;fill-rule:nonzero;stroke:#000;stroke-width:16.67px;"/><path d="M455.613,66.835c-5.27,8.05 11.95,5.01 16.1,3.55c14.47,-5.11 33.35,-21.73 42.55,2.18c10.57,27.49 -2.82,53.02 -21.82,72.01c-13.5,13.51 -47.3,17.22 -42.01,43.65c1.85,9.24 14.2,-0.92 18.55,-3.82c14.39,-9.59 59.21,-28.3 76.38,-24c9.98,2.49 17.62,18.34 23.46,25.64c18.93,23.66 38.95,46.78 57.83,70.37c59.16,73.96 115.88,148.11 163.12,230.78c9.06,15.85 20.07,40.39 34.37,51.82c4.3,3.44 17.49,9.05 21.82,3.28c6.76,-9.02 0.12,-32.77 -2.73,-42.01c-11.39,-37.02 -34.72,-71.01 -53.46,-104.75c-22.09,-39.76 -52.74,-72.34 -82.38,-106.93c-19.31,-22.53 -35.91,-47.04 -54.56,-69.83c-23.25,-28.42 -51.91,-52.21 -74.74,-80.74c-22.73,-28.41 -2.85,-73.09 -34.92,-98.75c-24.8,-19.84 -74.53,7.66 -87.56,27.55Z" style="fill:none;fill-rule:nonzero;stroke:#000;stroke-width:16.67px;"/><path d="M442.523,105.295c-8.05,-0.65 -9.88,-7.61 -18.28,-9.82c-7.83,-2.06 -12.62,11.89 -12,17.46c1.12,10.05 23.31,33.11 32.73,35.46c7.67,1.92 41.21,-42.27 22.37,-48.55c-10.6,-3.54 -17.11,6.08 -24.82,5.45Z" style="fill:none;fill-rule:nonzero;stroke:#000;stroke-width:16.67px;"/><path d="M217.043,344.675c11.29,-22.58 76.16,-48.21 100.9,-56.12c87.33,-27.95 173.91,-37.86 264.84,-22.7c27.54,4.59 49.66,21.17 75.04,29.63" style="fill:none;fill-rule:nonzero;stroke:#000;stroke-width:16.67px;"/><path d="M62.553,595.015c-3.48,6.96 -1.34,15.54 -1.26,23.33c0.32,30.36 6.96,54.71 10.72,83.87c4.12,31.9 7.31,65.51 22.7,94.58c23.78,44.92 61.69,81.1 93.96,119.81c29.98,35.98 72.5,76.9 117.92,92.7c49.29,17.15 103.65,18.45 155.12,15.13c63.5,-4.09 131.59,-9.56 189.17,-39.72c122.2,-64.01 197.66,-174.17 216.92,-308.99c3.15,-22.04 10.39,-44.89 7.57,-67.47c-3.01,-24.03 -4.19,-60.72 -15.14,-82.61c-3.44,-6.87 -10.02,-14.29 -12.61,-22.07" style="fill:none;fill-rule:nonzero;stroke:#000;stroke-width:16.67px;"/><path d="M251.403,324.885c14.54,-7.27 32.63,20.66 37.32,26.12c10.53,12.24 13.11,28.99 6.93,43.73c-19.36,46.18 -67.55,72.17 -95.97,111.96c-15.04,21.06 -21.44,48.4 -37.32,68.25c-8.18,10.22 -42.66,22.5 -42.66,-1.06" style="fill:none;fill-rule:nonzero;stroke:#000;stroke-width:16.67px;"/><path d="M62.123,628.795c15.64,-7.82 34.83,-3.28 52.25,-4.79c15.99,-1.39 30.66,-3 45.85,3.2c100.43,40.91 78.69,120.64 108.78,204.21c6.4,17.8 10.51,37.79 18.12,54.91c6.26,14.07 14.93,25.05 14.93,41.06c0,11.09 1.57,25.82 -11.19,30.92c-19.1,7.64 -39.2,-7.01 -54.92,-15.99c-12.57,-7.18 -28.42,-9.84 -41.06,-17.06c-11.36,-6.5 -22.67,-15.07 -34.12,-20.8" style="fill:none;fill-rule:nonzero;stroke:#000;stroke-width:16.67px;"/><path d="M376.703,589.345c5.71,2.85 35.31,3.03 38.92,3.2c34.57,1.57 71.54,-8.31 101.84,-23.46" style="fill:none;fill-rule:nonzero;stroke:#000;stroke-width:16.67px;"/><path d="M435.883,394.195c-7.1,4.89 -5.04,16.55 -6.4,25.06c-1.71,10.83 -3.35,21.66 -4.79,32.53c-2.76,20.69 -10.05,57.26 21.32,52.78c31.45,-4.49 16.3,-72 10.67,-91.71c-3.41,-11.92 -7.13,-28.06 -20.8,-18.66Z" style="fill:none;fill-rule:nonzero;stroke:#000;stroke-width:16.67px;"/><path d="M342.583,413.395c0,4.28 -1.43,8.88 0.53,12.79" style="fill:none;fill-rule:nonzero;stroke:#000;stroke-width:16.67px;"/><path d="M560.123,398.465c0,5.69 1.76,10.39 1.06,15.99" style="fill:none;fill-rule:nonzero;stroke:#000;stroke-width:16.67px;"/><path d="M579.843,258.765c-8.01,2.01 -10.19,2.42 -21.32,9.07c-5.99,3.57 -11.32,8.16 -16.53,12.79c-31.21,27.74 19.02,29.78 34.12,31.46c3.99,0.44 17.68,5.74 13.33,12.26c-11.09,16.64 -39.31,13.06 -55.45,21.87c-13.13,7.16 -20.41,19.26 -27.19,31.99c-20.95,39.26 -8.84,77.67 29.86,99.17c53.43,29.69 117.18,-18.22 166.35,-33.59c16.3,-5.09 29.26,-2.67 45.32,-2.67" style="fill:none;fill-rule:nonzero;stroke:#000;stroke-width:16.67px;"/><path d="M875.233,568.545c-96.09,-24.02 -181.15,-50.56 -253.26,34.66c-6.08,7.19 -12.79,12.24 -17.07,20.8c-20.72,41.45 9.9,90.32 45.32,109.3c23.01,12.32 59.45,19.62 70.92,46.39c5.23,12.21 11.65,27.52 8.53,41.05c-7.26,31.45 -29.51,59.18 -31.46,92.24c-0.67,11.36 1.74,31.12 18.66,27.73c10.58,-2.12 21.7,-5.1 31.99,-8.53" style="fill:none;fill-rule:nonzero;stroke:#000;stroke-width:16.67px;"/></svg>