<?xml version="1.0" encoding="UTF-8" standalone="no"?><!DOCTYPE svg PUBLIC "-//W3C//DTD SVG 1.1//EN" "http://www.w3.org/Graphics/SVG/1.1/DTD/svg11.dtd"><svg width="100%" height="100%" viewBox="0 0 298 298" version="1.1" xmlns="http://www.w3.org/2000/svg" xmlns:xlink="http://www.w3.org/1999/xlink" xml:space="preserve" xmlns:serif="http://www.serif.com/" style="fill-rule:evenodd;clip-rule:evenodd;stroke-linecap:round;stroke-linejoin:round;stroke-miterlimit:1.5;"><rect id="scribbles4" x="0" y="0" width="297.638" height="297.638" style="fill:none;"/><path d="M101.742,80.936c-8.518,22.656 -8.651,26.534 -26.034,39.223c18.658,14.643 19.526,15.841 19.139,39.692c8.323,-21.607 5.29,-24.49 28.094,-40.391c-5.512,-9.452 -12.491,-18.169 -18.112,-43.52c-1.029,1.665 -2.058,3.33 -3.087,4.996Z" style="fill:none;stroke:#000;stroke-width:8.77px;"/><path d="M148.855,61.305c-1.042,20.431 0.643,24.952 -14.896,40.612c8.114,8.26 9.007,7.616 11.923,18.687c6.017,-9.185 5.498,-9.269 13.175,-17.089c-5.905,-15.974 -6.981,-15.551 -10.202,-42.21Z" style="fill:none;stroke:#000;stroke-width:8.77px;"/><path d="M132.365,153.096c-3.756,30.338 -4.759,36.869 -29.305,51.462c19.239,19.848 20.478,20.836 18.939,47.949c4.969,-31.864 9.045,-36.574 27.845,-48.198c-18.523,-38.781 -12.726,-41.14 -16.033,-63.905l-1.446,12.692Z" style="fill:none;stroke:#000;stroke-width:8.77px;"/></svg>