<?xml version="1.0" encoding="UTF-8" standalone="no"?><!DOCTYPE svg PUBLIC "-//W3C//DTD SVG 1.1//EN" "http://www.w3.org/Graphics/SVG/1.1/DTD/svg11.dtd"><svg width="100%" height="100%" viewBox="0 0 298 298" version="1.1" xmlns="http://www.w3.org/2000/svg" xmlns:xlink="http://www.w3.org/1999/xlink" xml:space="preserve" xmlns:serif="http://www.serif.com/" style="fill-rule:evenodd;clip-rule:evenodd;stroke-linecap:round;stroke-linejoin:round;stroke-miterlimit:1.5;"><rect id="confidence" x="0" y="0" width="297.638" height="297.638" style="fill:none;"/><path d="M86.396,274.831c-5.446,-67.354 7.915,-72.348 -26.855,-121.819c-15.647,-22.263 -13.333,-40.596 -0.613,-31.896c4.901,3.352 18.74,21.487 21.926,22.666c7.276,2.693 5.542,-23.064 11.9,-15.319c31.523,27.039 25.159,62.339 24.194,144.519" style="fill:#fff;stroke:#000;stroke-width:5.3px;"/><path d="M183.142,268.327c-5.403,-84.807 3.094,-128.734 4.602,-131.388c10.242,-18.031 6.409,11.922 34.419,-9.768c24.091,-18.656 27.31,7.464 14.945,23.722c-15.964,20.989 -42.026,24.351 -26.421,114.8" style="fill:#fff;stroke:#000;stroke-width:5.3px;"/><path d="M123.331,51.165c0,-0 -17.715,1.623 -23.955,1.301c8.832,10.722 20.195,17.756 20.195,17.756c-0,0 -7.368,12.322 -15.595,26.281c1.697,-0.598 12.258,2.837 28.416,-10.09c2.618,-2.094 27.16,14.723 28.871,15.73c1.081,-13.614 -12.444,-30.417 -12.444,-30.417c-0,0 15.519,-2.67 26.227,-11.381c-2.971,-4.154 -26.227,-7.879 -26.227,-7.879c-0,-0 -5.976,-16.515 -9.872,-23.65c-18.356,22.317 -15.616,22.349 -15.616,22.349Z" style="fill:#e1c847;stroke:#000;stroke-width:5.3px;"/><path d="M173.811,29.227c5.352,-2.573 10.704,-5.146 16.057,-7.719" style="fill:#5969cf;stroke:#000;stroke-width:5.3px;"/><path d="M191.65,65.948c6.192,0.286 12.384,0.571 18.576,0.857" style="fill:#5969cf;stroke:#000;stroke-width:5.3px;"/><path d="M182.456,92.295l5.836,3.975" style="fill:none;stroke:#000;stroke-width:5.3px;"/><path d="M158.853,120.124l2.41,4.401" style="fill:none;stroke:#000;stroke-width:5.3px;"/><path d="M125.232,115.843l-1.687,6.154" style="fill:none;stroke:#000;stroke-width:5.3px;"/><path d="M88.729,110.162l-8.554,3.558" style="fill:none;stroke:#000;stroke-width:5.3px;"/><path d="M83.515,82.086l-10.645,0.968" style="fill:none;stroke:#000;stroke-width:5.3px;"/><path d="M92.023,35.238l-5.538,-5.718" style="fill:none;stroke:#000;stroke-width:5.3px;"/><path d="M133.191,17.453l-0.799,-6.693" style="fill:none;stroke:#000;stroke-width:5.3px;"/></svg>