<?xml version="1.0" encoding="UTF-8" standalone="no"?><!DOCTYPE svg PUBLIC "-//W3C//DTD SVG 1.1//EN" "http://www.w3.org/Graphics/SVG/1.1/DTD/svg11.dtd"><svg width="100%" height="100%" viewBox="0 0 298 298" version="1.1" xmlns="http://www.w3.org/2000/svg" xmlns:xlink="http://www.w3.org/1999/xlink" xml:space="preserve" xmlns:serif="http://www.serif.com/" style="fill-rule:evenodd;clip-rule:evenodd;stroke-linecap:round;stroke-linejoin:round;stroke-miterlimit:1.5;"><rect id="scribbles7" x="0" y="0" width="297.638" height="297.638" style="fill:none;"/><path d="M61.942,271.999c15.764,-45.935 19.381,-45.002 52.786,-66.343c36.472,-23.301 25.944,-42.305 29.275,-61.479c4.669,-26.872 19.534,-33.317 33.033,-41.544" style="fill:none;stroke:#000;stroke-width:8.8px;"/><path d="M184.626,59.971c-10.799,-17.295 -13.143,-0.9 -11.987,2.23c2.791,7.561 11.96,18.518 12.181,18.533c1.978,0.136 27.966,-15.912 17.26,-26.102c-7.208,-6.861 -16.515,4.22 -17.454,5.339Z" style="fill:none;stroke:#000;stroke-width:8.8px;"/><path d="M175.072,31.389l1.964,7.125" style="fill:none;stroke:#000;stroke-width:8.8px;"/><path d="M196.832,27.62l-3.275,8.828" style="fill:none;stroke:#000;stroke-width:8.8px;"/><path d="M213.352,43.852l9.879,-7.404" style="fill:none;stroke:#000;stroke-width:8.8px;"/></svg>