<?xml version="1.0" encoding="UTF-8" standalone="no"?><!DOCTYPE svg PUBLIC "-//W3C//DTD SVG 1.1//EN" "http://www.w3.org/Graphics/SVG/1.1/DTD/svg11.dtd"><svg width="100%" height="100%" viewBox="0 0 298 298" version="1.1" xmlns="http://www.w3.org/2000/svg" xmlns:xlink="http://www.w3.org/1999/xlink" xml:space="preserve" xmlns:serif="http://www.serif.com/" style="fill-rule:evenodd;clip-rule:evenodd;stroke-linecap:round;stroke-linejoin:round;stroke-miterlimit:1.5;"><rect id="side-page-3" serif:id="side page 3" x="0" y="0" width="297.638" height="297.638" style="fill:none;"/><clipPath id="_clip1"><rect x="0" y="0" width="297.638" height="297.638"/></clipPath><g clip-path="url(#_clip1)"><path d="M224.922,168.013c42.506,5.961 91.491,32.536 127.273,105.757c5.331,10.909 0.803,24.094 -10.107,29.425c-10.909,5.331 -24.094,0.803 -29.425,-10.106c-17.524,-35.859 -38.984,-57.169 -60.271,-69.097c0.211,4.262 -0.015,8.572 -0.74,12.904c-2.409,14.397 -10.132,29.609 -27.417,43.998c-27.817,23.155 -70.221,15.098 -94.433,-7.268c-13.583,-12.546 -21.116,-28.965 -20.054,-45.381c1.024,-15.811 9.645,-33.271 33.528,-47.096c4.07,-2.355 9.339,-4.774 15.574,-6.945c-16.747,-7.439 -34.499,-11.195 -50.859,-17.671c-27.399,-10.844 -51.84,-27.229 -67.296,-65.75c-4.522,-11.268 0.956,-24.088 12.225,-28.61c11.269,-4.521 24.089,0.957 28.61,12.225c12.015,29.944 33.13,38.404 55.108,45.681c20.104,6.656 40.975,12.456 59.984,24.493c6.595,4.176 17.813,12.481 28.3,23.441Zm-21.935,42.715c-16.341,-0.072 -29.874,3.991 -37.669,8.502c-6.72,3.89 -11.146,7.2 -11.644,11.658c-0.243,2.18 0.879,4.19 2.189,6.102c2.585,3.773 6.496,6.963 10.914,9.405c9.073,5.014 20.928,7.657 29.308,0.682c7.092,-5.904 11.182,-11.537 12.171,-17.443c1.134,-6.782 -1.511,-13.127 -5.269,-18.906Z" style="fill:#78dffb;"/><path d="M59.637,68.865c-0.667,3.805 -4.299,6.352 -8.104,5.684c-3.806,-0.667 -6.353,-4.299 -5.685,-8.104c1.527,-8.703 2.696,-20.858 15.117,-37.784c2.285,-3.115 6.67,-3.788 9.784,-1.502c3.115,2.285 3.788,6.67 1.503,9.785c-10.476,14.275 -11.327,24.581 -12.615,31.921Z" style="fill:#78dffb;"/><path d="M51.41,59.779c-0.722,0.11 -3.178,0.625 -3.143,2.527c0.023,1.279 0.506,2.78 1.394,4.605c1.691,3.474 0.244,7.667 -3.23,9.358c-3.474,1.691 -7.667,0.243 -9.358,-3.23c-4.462,-9.168 -2.973,-15.411 -0.301,-19.508c2.591,-3.972 6.833,-6.249 10.487,-7.19c2.83,-0.729 5.319,-0.638 6.594,-0.37c10.123,2.133 13.103,9.511 15.715,13.918c1.97,3.324 0.871,7.621 -2.453,9.591c-3.323,1.97 -7.621,0.871 -9.591,-2.453c-0.596,-1.006 -1.184,-2.253 -1.919,-3.553c-0.794,-1.406 -1.855,-3.044 -4.195,-3.695Z" style="fill:#78dffb;"/><path d="M40.238,66.283c-0.192,0.278 -0.37,0.652 -0.325,1.044c0.319,2.78 2.997,5.947 8.753,10.303c3.081,2.331 3.689,6.725 1.358,9.806c-2.331,3.08 -6.725,3.689 -9.806,1.358c-10.402,-7.871 -13.637,-14.847 -14.214,-19.871c-0.854,-7.446 3.343,-12.521 7.119,-14.915l3.185,-1.493l2.777,-0.457c4.637,-0.063 8.569,1.906 11.742,4.896c3.305,3.114 5.654,7.447 7.114,9.849c2.007,3.302 0.955,7.611 -2.347,9.618c-3.302,2.006 -7.611,0.954 -9.617,-2.348c-0.889,-1.463 -2.137,-3.97 -3.94,-6.073c-0.541,-0.631 -1.084,-1.357 -1.799,-1.717Z" style="fill:#78dffb;"/><path d="M82.362,74.446c1.014,3.727 -1.19,7.577 -4.918,8.591c-3.727,1.014 -7.577,-1.189 -8.591,-4.917c-5.367,-19.728 -7.023,-19.029 -22.659,-41.729c-2.191,-3.182 -1.387,-7.544 1.794,-9.736c3.182,-2.191 7.544,-1.387 9.736,1.794c17.182,24.945 18.741,24.318 24.638,45.997Z" style="fill:#78dffb;"/><path d="M295.65,198.685c-53.886,-39.794 -91.694,-37.986 -145.224,-16.325c-42.523,17.207 -74.172,88.866 26.238,108.218c18.936,3.65 80.121,-10.679 72.912,-68.18" style="fill:none;stroke:#000;stroke-width:3px;"/><path d="M297.758,264.131c-4.265,-6.481 -25.306,-50.244 -94.305,-48.974c-56.695,1.043 -52.981,27.356 -37.723,35.862c14.278,7.958 52.811,2.336 31.04,-33.945" style="fill:none;stroke:#000;stroke-width:3px;"/><path d="M230.673,168.391c-21.347,-26.084 -51.253,-33.127 -87.235,-45.602c-43.496,-15.079 -51.2,-27.855 -64.252,-61.522" style="fill:none;stroke:#000;stroke-width:3px;"/><path d="M164.427,177.042c-37.095,-37.467 -76.391,-8.66 -123.562,-89.302" style="fill:none;stroke:#000;stroke-width:3px;"/><path d="M66.543,62.672c-1.167,-22.565 8.937,-27.164 3.205,-31.12c-6.528,-4.505 -22.774,11.707 -22.158,29.469" style="fill:none;stroke:#000;stroke-width:3px;"/><path d="M77.803,60.169c-3.308,-5.156 -3.297,-5.084 -6.486,-10.343" style="fill:none;stroke:#000;stroke-width:3px;"/><path d="M60.643,31.549c-0.958,-1.329 -6.396,-12.343 -14.697,-7.288c-6.057,3.688 1.505,14.472 2.224,15.497" style="fill:none;stroke:#000;stroke-width:3px;"/><path d="M48.341,48.47c-9.792,1.596 -11.117,9.585 -13.916,23.056c-0.274,1.32 1.993,2.845 3.269,3.172c4.594,1.176 4.531,0.158 8.747,-2.123" style="fill:none;stroke:#000;stroke-width:3px;"/><path d="M38.772,53.629c-0.479,0.07 -11.245,-2.138 -13.658,16.306c-1.057,8.085 9.602,18.01 16.364,8.62" style="fill:none;stroke:#000;stroke-width:3px;"/><path d="M47.081,65.068c0.367,7.286 0.045,7.239 1.461,14.431" style="fill:none;stroke:#000;stroke-width:3px;"/><path d="M68.486,67.809c0.497,3.788 0.302,3.722 0.996,7.409" style="fill:none;stroke:#000;stroke-width:3px;"/><path d="M62.478,7.354c-0.529,-0.648 -5.723,-7.008 -9.996,-3.082c-4.909,4.509 5.505,17.706 8.406,17.537c4.914,-0.286 18.689,-11.577 12.232,-16.54c-4.63,-3.558 -9.68,1.45 -10.642,2.085Z" style="fill:none;stroke:#000;stroke-width:3px;"/></g></svg>