<?xml version="1.0" encoding="UTF-8" standalone="no"?><!DOCTYPE svg PUBLIC "-//W3C//DTD SVG 1.1//EN" "http://www.w3.org/Graphics/SVG/1.1/DTD/svg11.dtd"><svg width="100%" height="100%" viewBox="0 0 298 298" version="1.1" xmlns="http://www.w3.org/2000/svg" xmlns:xlink="http://www.w3.org/1999/xlink" xml:space="preserve" xmlns:serif="http://www.serif.com/" style="fill-rule:evenodd;clip-rule:evenodd;stroke-linecap:round;stroke-linejoin:round;stroke-miterlimit:1.5;"><rect id="side-page-1" serif:id="side page 1" x="0" y="0" width="297.638" height="297.638" style="fill:none;"/><clipPath id="_clip1"><rect x="0" y="0" width="297.638" height="297.638"/></clipPath><g clip-path="url(#_clip1)"><path d="M111.665,176.75c0.673,6.125 0.412,12.767 -0.865,19.58c8.597,-6.519 15.013,-15.527 18.282,-22.285c8.029,-16.6 12.501,-30.782 18.048,-42.521c11.004,-23.288 24.867,-39.727 62.814,-48.411c11.751,-2.69 23.474,4.667 26.163,16.418c2.69,11.75 -4.667,23.473 -16.418,26.163c-23.854,5.459 -30.035,16.575 -36.646,32.733c-4.144,10.126 -8.363,21.667 -14.637,34.638c-11.72,24.23 -46.453,61.419 -88.788,53.1c-20.884,16.089 -52.636,25.861 -97.458,20.245c-11.961,-1.499 -20.455,-12.426 -18.956,-24.387c1.499,-11.961 12.426,-20.455 24.387,-18.956c19.284,2.416 35.039,1.079 47.351,-2.724c-26.356,-27.978 -19.433,-61.953 -4.195,-78.36c7.592,-8.175 45.073,-18.252 64.256,-0.184c4.584,4.317 8.899,10.208 11.85,16.836c2.228,5.003 4.083,11.476 4.812,18.115Zm-44.249,14.138c0.168,-0.643 0.316,-1.29 0.444,-1.94c1.376,-6.963 0.529,-14.392 -5.243,-16.821c-0.513,0.961 -1.432,2.864 -1.527,4.32c-0.043,0.667 -0.031,1.354 0.037,2.054c0.405,4.182 2.499,8.367 6.289,12.387Z" style="fill:#a3d464;"/><path d="M216.58,96.025c-3.063,2.337 -7.447,1.749 -9.784,-1.313c-2.338,-3.062 -1.749,-7.446 1.313,-9.784c12.9,-9.847 12.89,-9.552 24.444,-20.88c2.751,-2.696 7.174,-2.653 9.871,0.098c2.697,2.751 2.653,7.174 -0.098,9.871c-12.174,11.935 -12.155,11.633 -25.746,22.008Z" style="fill:#a3d464;"/><path d="M225.352,98.245c-3.851,-0.091 -6.904,-3.292 -6.812,-7.144c0.091,-3.851 3.292,-6.904 7.144,-6.812c19.137,0.454 18.971,0.957 37.834,-2.704c3.782,-0.735 7.448,1.74 8.182,5.522c0.734,3.782 -1.74,7.448 -5.522,8.182c-20.356,3.951 -20.174,3.446 -40.826,2.956Z" style="fill:#a3d464;"/><path d="M231.205,107.955c-3.83,0.413 -7.274,-2.362 -7.687,-6.193c-0.412,-3.83 2.363,-7.274 6.193,-7.687c14.092,-1.517 14.862,0.326 41.75,-7.66c3.693,-1.097 7.582,1.011 8.679,4.704c1.097,3.693 -1.011,7.581 -4.704,8.678c-28.49,8.463 -29.299,6.551 -44.231,8.158Z" style="fill:#a3d464;"/><path d="M225.506,117.668c-3.583,0.197 -6.652,-2.552 -6.849,-6.135c-0.196,-3.583 2.553,-6.652 6.135,-6.848c19.856,-1.092 20.923,0.967 46.055,-7.692c3.393,-1.168 7.096,0.637 8.265,4.03c1.169,3.392 -0.637,7.096 -4.029,8.264c-27.063,9.324 -28.195,7.206 -49.577,8.381Z" style="fill:#a3d464;"/><path d="M218.808,126.393c-3.427,-0.503 -5.801,-3.693 -5.299,-7.12c0.503,-3.427 3.693,-5.802 7.12,-5.299c29.646,4.347 29.543,1.503 41.304,0.05c3.438,-0.425 6.573,2.021 6.998,5.459c0.424,3.438 -2.022,6.573 -5.459,6.998c-12.718,1.571 -12.607,4.612 -44.664,-0.088Z" style="fill:#a3d464;"/><path d="M-1.768,266.039c31.404,3.751 38.999,0.53 75.529,-20.676" style="fill:none;stroke:#000;stroke-width:3px;"/><path d="M-3.96,223.446c13.606,3.168 21.302,4.256 34.937,-0.409" style="fill:none;stroke:#000;stroke-width:3px;"/><path d="M161.574,106.693c-19.982,27.877 -13.181,33.827 -31.764,62.14c-35.298,53.777 -74.666,20.038 -68.823,6.112c0.47,-1.121 8.196,-6.221 8.932,12.291" style="fill:none;stroke:#000;stroke-width:3px;"/><path d="M213.679,127.77c-27.156,13.485 -26.69,17.517 -43.257,52.158c-11.217,23.456 -48.683,61.691 -76.629,64.804c-4.659,0.519 -27.157,3.026 -56.618,-15.119c-17.321,-10.667 -36.515,-76.442 17.503,-95.63c13.175,-4.68 61.449,1.938 55.811,55.095" style="fill:none;stroke:#000;stroke-width:3px;"/><path d="M165.958,103.388c27.958,-22.713 33.706,-13.942 54.262,-26.279c10.155,-6.095 17.034,-16.903 20.508,-12.139c4.588,6.29 -6.085,19.22 -7.195,20.565" style="fill:none;stroke:#000;stroke-width:3px;"/><path d="M240.884,85.278c21.995,-1.514 23.515,-7.573 29.764,-0.819" style="fill:none;stroke:#000;stroke-width:3px;"/><path d="M250.608,92.292c23.064,-4.74 30.674,-9.414 29.769,4.156" style="fill:none;stroke:#000;stroke-width:3px;"/><path d="M252.969,105.512c20.38,-5.826 20.381,-6.407 22.082,-5.745c3.452,1.344 -1.027,9.363 -1.424,10.073" style="fill:none;stroke:#000;stroke-width:3px;"/><path d="M245.661,116.844c7.269,0.084 25.875,-2.475 17.123,6.674c-10.337,10.806 -20.15,1.603 -46.318,3.988" style="fill:none;stroke:#000;stroke-width:3px;"/><path d="M216.602,107.03c5.183,-1.389 10.631,-1.344 13.895,-8.497" style="fill:none;stroke:#000;stroke-width:3px;"/><path d="M244.537,90.37c8.228,11.006 7.747,14.915 0.322,27.165" style="fill:none;stroke:#000;stroke-width:3px;"/></g></svg>