<?xml version="1.0" encoding="UTF-8" standalone="no"?><!DOCTYPE svg PUBLIC "-//W3C//DTD SVG 1.1//EN" "http://www.w3.org/Graphics/SVG/1.1/DTD/svg11.dtd"><svg width="100%" height="100%" viewBox="0 0 298 298" version="1.1" xmlns="http://www.w3.org/2000/svg" xmlns:xlink="http://www.w3.org/1999/xlink" xml:space="preserve" xmlns:serif="http://www.serif.com/" style="fill-rule:evenodd;clip-rule:evenodd;stroke-linecap:round;stroke-linejoin:round;stroke-miterlimit:1.5;"><rect id="scribbles3" x="0" y="0" width="297.638" height="297.638" style="fill:none;"/><path d="M90.938,152.894c-1.702,-2.45 -21.983,-31.656 -31.048,-20.851c-11.375,13.557 23.914,62.105 29.239,65.978c11.096,8.068 76.287,-34.947 53.465,-56.416c-26.831,-25.238 -49.291,7.809 -51.656,11.289Z" style="fill:none;stroke:#000;stroke-width:8.77px;"/><path d="M173.006,77.562c-27.063,-29.897 -42.299,-19.239 -40.005,0c2.499,20.956 24.264,52.092 35.006,52.092c18.962,-0 50.809,-16.522 50.809,-44.479c-0,-31.683 -41.529,-9.398 -45.81,-7.613Z" style="fill:none;stroke:#000;stroke-width:8.77px;"/><path d="M195.992,183.531c-0.413,-2.306 -5.134,-28.668 -11.141,-27.114c-23.393,6.052 -7.106,61.029 5.92,60.322c20.039,-1.087 39.65,-9.445 47.094,-28.262c7.31,-18.479 -3.643,-34.274 -41.873,-4.946Z" style="fill:none;stroke:#000;stroke-width:8.77px;"/></svg>