<?xml version="1.0" encoding="UTF-8" standalone="no"?><!DOCTYPE svg PUBLIC "-//W3C//DTD SVG 1.1//EN" "http://www.w3.org/Graphics/SVG/1.1/DTD/svg11.dtd"><svg width="100%" height="100%" viewBox="0 0 298 298" version="1.1" xmlns="http://www.w3.org/2000/svg" xmlns:xlink="http://www.w3.org/1999/xlink" xml:space="preserve" xmlns:serif="http://www.serif.com/" style="fill-rule:evenodd;clip-rule:evenodd;stroke-linejoin:round;stroke-miterlimit:2;"><rect id="Artboard15" x="0" y="0" width="297.638" height="297.638" style="fill:none;"/><path d="M277.472,210.131c-4.49,54.329 -9.769,65.824 -72.854,65.471c-132.936,-0.743 -160.571,8.191 -161.964,-45.59c-4.742,-182.927 3.389,-191.433 37.821,-203.198c7.52,-2.57 141.728,-16.673 178.586,18.796c26.461,25.464 13.463,63.836 18.411,164.521Zm-37.747,-150.986c-2.926,-0.933 -32.002,-10.211 -36.592,11.608c-2.626,12.485 18.681,27.731 32.087,24.5c5.078,-1.225 33.44,-21.186 4.505,-36.108Zm-53.098,59.489c-0.556,-0.18 -39.742,-20.323 -68.453,13.792c-42.051,49.965 21.799,107.633 74.67,76.471c20.101,-11.848 22.445,-48.215 21.247,-58.693c-2.73,-23.9 -19.27,-27.769 -27.464,-31.57Z" style="fill:#f493a4;"/></svg>