<?xml version="1.0" encoding="UTF-8" standalone="no"?><!DOCTYPE svg PUBLIC "-//W3C//DTD SVG 1.1//EN" "http://www.w3.org/Graphics/SVG/1.1/DTD/svg11.dtd"><svg width="100%" height="100%" viewBox="0 0 298 298" version="1.1" xmlns="http://www.w3.org/2000/svg" xmlns:xlink="http://www.w3.org/1999/xlink" xml:space="preserve" xmlns:serif="http://www.serif.com/" style="fill-rule:evenodd;clip-rule:evenodd;stroke-linecap:round;stroke-linejoin:round;stroke-miterlimit:10;"><rect id="joyful" x="0" y="0" width="297.638" height="297.638" style="fill:none;"/><path d="M189.958,40.921c0.252,2.479 -4.894,-1.078 -7.385,-1.182c-5.179,-0.216 -18.311,4.258 -18.311,11.224c-0,8.743 34.747,2.919 30.714,12.995c-4.59,11.481 -42.376,4.009 -33.67,30.127c2.856,8.566 14.639,9.452 21.858,9.452c19.639,-0 37.777,-5.907 57.3,-5.907c8.134,-0 18.356,8.436 26.582,2.953c3.87,-2.581 -8.121,-20.203 -10.043,-22.447c-12.083,-14.096 -24.353,-25.249 -42.532,-31.308c-2.147,-0.715 -25.044,-11.077 -24.513,-5.907Z" style="fill:#b5ca9b;fill-rule:nonzero;"/><path d="M75.947,53.326c-3.071,-1.184 4.618,4.796 6.205,7.679c2.837,5.161 1.26,11.061 -1.184,15.949c-5.322,10.644 -16.299,17.243 -21.855,28.355c-3.179,6.354 -4.868,16.093 -10.043,21.264c-3.297,3.301 -9.496,10.616 -15.359,8.272c-5.063,-2.025 -7.059,-6.378 -8.271,-11.224c-4.871,-19.486 7.241,-36.982 23.038,-49.62c2.572,-2.056 30.248,-19.604 27.469,-20.675Z" style="fill:#b5ca9b;fill-rule:nonzero;"/><path d="M13.628,161.427c-2.491,-0 0.448,-5.495 2.361,-7.088c3.998,-3.33 8.907,-5.412 13.587,-7.679c12.042,-5.838 32.748,-2.949 40.761,8.271c3.633,5.085 8.255,38.989 -0,41.349c-5.028,1.436 -10.798,-0.899 -14.768,-3.544c-2.859,-1.906 -11.588,-19.952 -17.13,-8.863c-1.373,2.745 3.169,8.067 4.132,10.635c2.725,7.267 6.79,11.438 11.815,17.723c3.134,3.914 7.069,3.822 10.635,6.496c5.261,3.946 6.483,17.143 1.772,21.858c-7.401,7.398 -15.225,-4.593 -19.495,-8.863c-17.083,-17.083 -23.038,-29.96 -23.038,-55.528" style="fill:#b5ca9b;fill-rule:nonzero;"/><path d="M268.227,145.479c-18.657,-29.545 -70.113,-18.64 -76.795,14.768c-1.404,7.017 13.51,12.326 17.131,15.947c4.692,4.692 1.967,21.465 5.908,22.45c7.151,1.784 35.016,-26.947 37.805,-12.999c2.514,12.56 -52.349,33.894 -34.85,51.396c11.399,11.399 30.833,-8.665 39.577,-15.951c16.434,-13.695 28.034,-47.983 18.903,-68.523c-1.35,-3.035 -6.49,-5.204 -7.679,-7.088Z" style="fill:#b5ca9b;fill-rule:nonzero;"/><path d="M156.886,38.117c-2.767,-6.904 -38.599,-4.996 -47.778,-2.172c-7.737,2.381 -31.351,16.097 -26.787,27.509c2.466,6.166 5.108,7.771 3.621,15.203c-1.814,9.064 -10.344,16.603 -15.202,23.889c-5.834,8.751 -6.365,19.243 -10.859,28.233c-3.925,7.846 -11.633,13.754 -20.995,13.754c-2.223,-0 -13.523,-2.188 -13.03,-1.449c1.395,2.088 27.973,5.399 31.13,5.792c7.693,0.963 15.586,8.86 20.269,14.479c9.189,11.029 -11.767,33.043 4.343,42.712c5.815,3.49 17.544,-0.649 23.166,-2.898c3.292,-1.317 4.923,0.608 7.961,0c4.193,-0.838 14.793,-10.308 17.374,-13.753c8.527,-11.37 1.065,-31.396 17.377,-35.474c6.8,-1.698 17.55,3.787 18.82,10.136c0.646,3.221 -1.081,7.126 0.726,10.136c5.373,8.959 12.874,17.217 20.268,24.612c4.181,4.18 20.122,9.71 23.889,2.172c3.48,-6.963 -5.188,-8.207 -7.238,-12.305c-8.245,-16.491 -24.125,-25.043 -9.413,-43.438c8.863,-11.076 31.044,-22.225 45.607,-17.373c4.685,1.564 37.335,15.832 35.473,6.515c-0.981,-4.897 -9.134,-30.126 -11.584,-32.575c-7.872,-7.872 -28.025,-0.893 -36.92,0.724c-8.639,1.571 -18.17,-0.275 -26.783,1.448c-11.873,2.374 -29.934,7.759 -40.54,-0.724c-4.481,-3.584 -6.365,-25.487 -2.172,-29.681c4.132,-4.133 9.944,-4.016 15.202,-5.067c2.69,-0.538 8.361,-5.986 5.792,-9.411c-3.153,-4.206 -20.789,2.32 -23.166,-3.62c-3.739,-9.345 13.11,-6.917 11.585,-13.03c-0.784,-3.124 -9.25,-2.13 -10.136,-4.344Z" style="fill:#b7d6e8;fill-rule:nonzero;"/><path d="M149.408,180.755c-7.286,9.106 -17.546,15.368 -26.515,22.824c-7.35,6.109 -13.459,15.688 -21.481,21.145c-4.186,2.846 -14.249,6.285 -19.129,3.355c-0.621,-0.371 -1.356,-0.995 -2.015,-0.336c-3.531,3.531 -3.183,22.472 1.679,25.507c6.902,4.315 14.172,3.669 21.48,6.714c15.756,6.566 32.567,12.128 49.336,15.775c6.349,1.378 13.776,0.035 20.138,-0.672c19.184,-2.13 38.857,-5.629 53.029,-19.802c2.083,-2.082 13.888,-15.522 12.42,-18.461c-1.638,-3.275 -19.191,7.929 -22.152,5.706c-3.963,-2.971 -4.804,-14.118 -3.355,-18.458c0.131,-0.393 0.866,-2.674 -0,-3.023c-1.961,-0.783 -4.418,0.829 -6.378,0.336c-7.452,-1.861 -16.779,-8.194 -23.16,-12.752c-4.449,-3.179 -17.994,-15.774 -22.821,-15.774" style="fill:#b7d6e8;fill-rule:nonzero;"/><path d="M175.696,123.244c2.584,-5.708 -4.2,-5.697 -8.073,-5.704c-4.516,-0.007 -8.789,2.883 -13.216,3.673c-7.171,1.273 -38.694,-6.398 -36.19,7.673c1.657,9.311 11.754,10.974 19.61,11.866c19.494,2.21 30.362,-0.937 37.869,-17.508Z" style="fill:#fff;fill-rule:nonzero;"/><path d="M148.618,76.087c-9.17,0.594 -16.964,27.658 -4.641,29.711c11.262,1.878 12.269,-30.205 4.641,-29.711Z" style="fill:#9bb9ca;fill-rule:nonzero;"/><path d="M250.04,83.279c-5.987,-6.97 -13.97,-14.286 -21.416,-19.788c-21.04,-15.552 -49.982,-25.062 -75.656,-28.866c-53.052,-7.859 -112.422,40.899 -128.967,88.692c-9.288,26.835 -4.497,58.516 7.916,83.342c1.449,2.898 4.315,5.149 6.285,7.683c9.048,11.632 17.239,19.83 29.099,28.865c38.631,29.432 105.542,37.435 149.22,15.596c15.784,-7.894 27.397,-23.179 36.081,-37.943c5.038,-8.565 13.143,-16.434 16.76,-25.84c10.161,-26.419 7.36,-52.55 1.398,-79.384c-0.589,-2.645 -18.052,-29.255 -20.72,-32.357Z" style="fill:none;fill-rule:nonzero;stroke:#000;stroke-width:5.33px;"/><path d="M171.359,85.374c2.456,-4.918 11.927,-5.327 16.526,-3.026" style="fill:none;fill-rule:nonzero;stroke:#000;stroke-width:5.33px;"/><path d="M118.978,87.935c-2.322,-4.65 -13.424,-4.346 -16.993,-2.561" style="fill:none;fill-rule:nonzero;stroke:#000;stroke-width:5.33px;"/><path d="M147.921,75.661c-3.886,1.397 -8.853,25.366 -2.303,26.676c7.894,1.579 6.953,-28.349 2.303,-26.676Z" style="fill:none;fill-rule:nonzero;stroke:#000;stroke-width:5.33px;"/><path d="M125.848,115.1c6.8,0.101 14.096,2.541 20.921,1.823c7.76,-0.817 19.111,-6.817 26.675,-2.495c7.158,4.09 6.493,15.654 0,20.151c-8.476,5.866 -28.632,10.437 -38.96,9.404c-6.051,-0.605 -14.738,-3.327 -18.039,-8.828c-5.197,-8.665 1.868,-20.168 9.403,-20.055Z" style="fill:none;fill-rule:nonzero;stroke:#000;stroke-width:5.33px;"/><path d="M75.953,52.248c2.216,1.479 5.117,2.054 6.909,4.03c3.406,3.761 2.878,7.414 2.878,11.707c0,20.585 -17.095,21.984 -24.375,37.999c-2.642,5.813 -11.815,25.944 -18.039,28.019c-3.493,1.165 -4.999,-0.281 -7.868,-1.919c-8.214,-4.695 -11.131,-11.38 -11.131,-21.111" style="fill:none;fill-rule:nonzero;stroke:#000;stroke-width:5.33px;"/><path d="M16.267,151.659c2.728,1.365 4.929,-3.662 7.676,-4.99c5.201,-2.511 10.849,-3.259 16.504,-3.454c4.724,-0.163 9.426,-0.246 14.009,0.959c5.185,1.366 11.831,3.867 14.588,8.828c1.945,3.506 0.8,8.629 1.152,12.474c1.03,11.358 -0.173,22.52 3.454,33.395" style="fill:none;fill-rule:nonzero;stroke:#000;stroke-width:5.33px;"/><path d="M75.185,222.475c0,16.792 4.705,19.575 -12.857,19.575" style="fill:none;fill-rule:nonzero;stroke:#000;stroke-width:5.33px;"/><path d="M42.357,186.931c-1.344,-5.181 12.822,4.881 15.384,6.387c8.885,5.227 17.054,11.831 26.051,17.125c1.587,0.934 9.874,6.352 11.55,5.651c10.625,-4.433 39.987,-27.394 43.31,-33.039c3.227,-5.489 1.487,-13.13 2.251,-19.108c0.144,-1.139 0.064,-6.371 1.101,-6.873c5.36,-2.597 7.641,9.707 8.034,12.739c0.627,4.82 -1.007,12.186 -3.924,15.835c-1.488,1.862 -4.286,2.313 -5.956,4.014c-4.369,4.443 -29.499,30.002 -38.995,34.598c-4.446,2.156 -10.782,-1.423 -14.908,-2.722c-13.452,-4.235 -42.398,-22.83 -43.972,-28.895" style="fill:none;fill-rule:nonzero;stroke:#000;stroke-width:5.33px;"/><path d="M244.948,181.833c-2.28,2.114 -7.551,4.954 -9.931,6.493c-6.876,4.449 -13.913,8.546 -20.783,12.992c-2.354,1.522 -6.96,5.255 -10.117,4.215c-2.872,-0.947 -4.516,-3.259 -6.803,-4.989c-2.485,-1.884 -5.492,-3.199 -8.085,-4.916c-7.581,-5.012 -16.933,-7.622 -24.619,-12.701c-1.391,-0.922 -3.243,-1.763 -4.116,-3.279c-1.814,-3.141 0.684,-12.726 -0.365,-17.057c-0.24,-0.976 -0.073,-4.235 -1.174,-4.654c-3.697,-1.417 -4.631,5.089 -5.213,7.702c-1.119,4.99 -1.519,13.862 1.849,18.161c2.207,2.814 5.344,4.9 8.181,7.011c8.783,6.534 17.099,13.28 27.033,18.551c5.156,2.734 11.499,7.727 17.617,7.455c5.204,-0.233 11,-5.405 14.703,-8.636c7.773,-6.784 20.33,-10.977 25.716,-20.265c1.954,-3.371 0.083,-9.774 -3.893,-6.083Z" style="fill:none;fill-rule:nonzero;stroke:#000;stroke-width:5.33px;"/><path d="M275.877,150.542c-2.245,-6.086 -8.831,-10.593 -14.147,-13.913c-16.622,-10.391 -61.739,-11.37 -69.079,10.971c-2.428,7.385 -1.775,17.265 4.724,22.587c4.241,3.477 10.999,6.448 14.038,11.128c3.499,5.392 3.048,12.611 2.373,18.72" style="fill:none;fill-rule:nonzero;stroke:#000;stroke-width:5.33px;"/><path d="M214.56,215.666c-0.595,5.379 -0.857,9.355 -0.662,14.776c0.189,5.182 5.086,12.909 11.083,10.245c9.144,-4.062 17.623,-12.688 24.909,-19.456c4.73,-4.391 16.353,-10.884 18.88,-16.373" style="fill:none;fill-rule:nonzero;stroke:#000;stroke-width:5.33px;"/><path d="M191.589,41.585c0.227,-2.065 -4.04,-1.392 -6.109,-1.23c-3.793,0.296 -7.536,1.046 -11.287,1.668c-5.61,0.929 -14.265,4.559 -13.642,11.678c0.234,2.678 4.897,2.504 6.794,2.555c2.933,0.079 21.768,-0.158 22.155,4.251c0.272,3.123 -14.52,4.638 -17.134,5.602c-8.942,3.302 -16.887,16.42 -15.371,26.061c1.215,7.707 8.287,11.016 15.106,12.772c5.546,1.427 10.657,2.865 16.44,1.953c9.755,-1.536 17.994,-7.375 28.101,-8.138c6.685,-0.505 13.472,2.281 19.837,3.856c7.395,1.829 24.829,7.387 30.391,-1.225" style="fill:none;fill-rule:nonzero;stroke:#000;stroke-width:5.33px;"/></svg>