<?xml version="1.0" encoding="UTF-8" standalone="no"?><!DOCTYPE svg PUBLIC "-//W3C//DTD SVG 1.1//EN" "http://www.w3.org/Graphics/SVG/1.1/DTD/svg11.dtd"><svg width="100%" height="100%" viewBox="0 0 298 298" version="1.1" xmlns="http://www.w3.org/2000/svg" xmlns:xlink="http://www.w3.org/1999/xlink" xml:space="preserve" xmlns:serif="http://www.serif.com/" style="fill-rule:evenodd;clip-rule:evenodd;stroke-linejoin:round;stroke-miterlimit:2;"><rect id="Artboard14" x="0" y="0" width="297.638" height="297.638" style="fill:none;"/><path d="M27.66,98.596c4.489,-54.329 9.768,-65.824 72.853,-65.471c132.936,0.743 160.571,-8.191 161.965,45.59c4.741,182.927 -3.39,191.433 -37.822,203.198c-7.52,2.57 -141.728,16.673 -178.586,-18.796c-26.461,-25.464 -13.462,-63.836 -18.41,-164.521Zm108.034,40.823c-0.902,45.659 0.541,45.336 -5.63,90.358c22.288,3.007 27.037,10.064 31.619,-1.885c6.806,-17.746 1.591,-63.492 23.119,-61.922c29.884,2.179 14.102,65.403 13.689,70.803c6.005,1.433 27.771,2.402 36.656,-6.996c4.33,-4.579 -1.187,-11.618 0,-22.264c2.442,-21.886 8.111,-56.424 -17.421,-68.094c-22.37,-10.225 -36.409,-2.785 -53.741,14.075l-0.512,-14.565c-13.657,-0.35 -13.311,-1.447 -27.779,0.49Zm-62.578,-1.199c2.022,46.652 2.768,46.317 -1.969,92.534c20.291,3.598 28.884,15.75 32.332,-4.365c1.151,-6.717 1.753,-10.229 4.016,-85.091c-2.48,-0.668 -26.102,-12.123 -34.379,-3.078Zm18.869,-65.353c-14.807,5.216 -18.345,15.597 -14.807,23.671c3.42,7.807 11.614,13.663 26.502,6.732c7.852,-3.655 12.211,-14.116 11.157,-21.538c-1.104,-7.783 -12.801,-12.407 -22.852,-8.865Z" style="fill:#195cb1;"/></svg>