<?xml version="1.0" encoding="UTF-8" standalone="no"?><!DOCTYPE svg PUBLIC "-//W3C//DTD SVG 1.1//EN" "http://www.w3.org/Graphics/SVG/1.1/DTD/svg11.dtd"><svg width="100%" height="100%" viewBox="0 0 298 298" version="1.1" xmlns="http://www.w3.org/2000/svg" xmlns:xlink="http://www.w3.org/1999/xlink" xml:space="preserve" xmlns:serif="http://www.serif.com/" style="fill-rule:evenodd;clip-rule:evenodd;stroke-linecap:round;stroke-linejoin:round;stroke-miterlimit:1.5;"><rect id="magnetic" x="0" y="0" width="297.638" height="297.638" style="fill:none;"/><path d="M83.637,192.335c-0.371,0.334 -38.537,22.614 -40.677,24.398c-12.166,10.138 -24.732,-38.96 -15.93,-55.685c24.059,-45.71 50.74,-62.192 63.983,-71.426c22.084,15.321 39.715,16.467 21.16,36.112c-34.056,36.059 -38.924,47.514 -28.536,66.601Z" style="fill:#ec4545;"/><path d="M123.776,65.54c-12.187,3.401 -46.897,8.875 -26.245,27.788c15.119,13.845 27.465,36.431 43.57,13.482c10.086,-14.372 -2.829,-15.803 -19.04,-38.903c-0,-0 1.715,-2.367 1.715,-2.367Z" style="fill:#989899;"/><path d="M190.143,158.372c29.358,-23.486 34.908,-11.526 59.008,17.393c2.467,2.961 -17.331,22.374 -27.446,23.774c-4.15,0.575 -8.461,1.172 -35.892,-38.137c0,0 4.33,-3.03 4.33,-3.03Z" style="fill:#989899;"/><path d="M40.134,217.356c0.044,0.434 23.74,46.641 77.752,39.994c29.645,-3.649 50.253,-24.861 90.57,-46.725c10.374,-5.625 10.649,-8.547 3.603,-17.908c-5.083,-6.752 -9.856,-2.641 -26.255,-31.503c-40.46,24.332 -43.6,36.273 -77.576,36.273c-13.869,0 -25.978,-10.488 -28.177,-6.793c-2.168,3.641 -40.379,22.137 -39.917,26.662Z" style="fill:#5969cf;"/><path d="M79.216,181.067c-4.359,-36.753 69.224,-79.444 70.817,-80.487c-1.995,-3.039 -23.347,-35.551 -29.055,-34.935c-5.77,0.623 -130.408,73.675 -78.81,152.951c49.301,75.748 130.733,14.124 139.654,7.373c31.468,-23.814 30.885,-23.994 59.862,-50.804c-23.941,-36.49 -29.086,-34.818 -37.427,-29.418c-6.788,4.396 -118.089,93.941 -125.041,35.32Z" style="fill:none;stroke:#000;stroke-width:5.3px;"/><path d="M80.051,78.713c22.101,22.406 21.915,22.164 43.776,44.692" style="fill:none;stroke:#000;stroke-width:5.3px;"/><path d="M177.311,156.622c20.641,24.971 20.278,24.785 40.276,50.543" style="fill:none;stroke:#000;stroke-width:5.3px;"/><path d="M136.47,48.764c3.723,-5.247 7.447,-10.495 11.17,-15.742" style="fill:none;stroke:#000;stroke-width:5.3px;"/><path d="M159.627,57.306c7.558,-3.252 15.117,-6.505 22.675,-9.757" style="fill:none;stroke:#000;stroke-width:5.3px;"/><path d="M178.839,78.713c6.972,-1.955 13.945,-3.91 20.917,-5.865" style="fill:none;stroke:#000;stroke-width:5.3px;"/><path d="M226.354,121.115c2.716,-5.55 5.432,-11.1 8.148,-16.65" style="fill:none;stroke:#000;stroke-width:5.3px;"/><path d="M253.628,131.716c7.943,-2.965 15.886,-5.929 23.829,-8.894" style="fill:none;stroke:#000;stroke-width:5.3px;"/><path d="M264.949,164.135l12.352,-1.103" style="fill:none;stroke:#000;stroke-width:5.3px;"/></svg>