<?xml version="1.0" encoding="UTF-8" standalone="no"?><!DOCTYPE svg PUBLIC "-//W3C//DTD SVG 1.1//EN" "http://www.w3.org/Graphics/SVG/1.1/DTD/svg11.dtd"><svg width="100%" height="100%" viewBox="0 0 298 298" version="1.1" xmlns="http://www.w3.org/2000/svg" xmlns:xlink="http://www.w3.org/1999/xlink" xml:space="preserve" xmlns:serif="http://www.serif.com/" style="fill-rule:evenodd;clip-rule:evenodd;stroke-linecap:round;stroke-linejoin:round;stroke-miterlimit:1.5;"><rect id="scribbles8" x="0" y="0" width="297.638" height="297.638" style="fill:none;"/><path d="M28.687,246.72c45.051,-100.548 44.865,-108.993 114.487,-162.783" style="fill:none;stroke:#000;stroke-width:8.8px;"/><path d="M183.118,50.962c-10.266,-9.625 -19.517,-10.168 -19.019,2.648c0.242,6.21 10.465,18.463 11.523,19.05c2.929,1.626 33.191,-12.829 26.609,-23.989c-0.917,-1.554 -10.755,-11.071 -19.113,2.291Z" style="fill:none;stroke:#000;stroke-width:8.8px;"/><path d="M83.757,232.147c52.402,-41.205 52.65,-41.686 110.514,-59.903" style="fill:none;stroke:#000;stroke-width:8.8px;"/><path d="M229.68,155.54c-25.326,-25.087 -17.453,20.237 -6.902,26.717c3.141,1.928 24.621,-3.68 28.342,-19.927c3.585,-15.651 -6.275,-13.961 -21.44,-6.79Z" style="fill:none;stroke:#000;stroke-width:8.8px;"/></svg>